<svg xmlns="http://www.w3.org/2000/svg" xmlns:xlink="http://www.w3.org/1999/xlink" width="20px" height="20px" viewBox="0 0 20 20" version="1.1">
<g id="surface1">
<path fill="#e91515" style=" stroke:none;fill-rule:evenodd;fill-opacity:1;" d="M 15.320312 18.984375 C 15.589844 19.171875 15.933594 19.21875 16.242188 19.101562 C 16.550781 18.984375 16.777344 18.722656 16.847656 18.402344 C 17.570312 15 19.328125 6.386719 19.984375 3.289062 C 20.035156 3.058594 19.953125 2.8125 19.769531 2.660156 C 19.585938 2.503906 19.332031 2.457031 19.105469 2.542969 C 15.609375 3.835938 4.851562 7.871094 0.453125 9.5 C 0.171875 9.601562 -0.0078125 9.871094 0 10.164062 C 0.0117188 10.460938 0.207031 10.714844 0.496094 10.800781 C 2.464844 11.390625 5.054688 12.214844 5.054688 12.214844 C 5.054688 12.214844 6.265625 15.867188 6.898438 17.726562 C 6.976562 17.960938 7.160156 18.140625 7.398438 18.207031 C 7.640625 18.269531 7.894531 18.203125 8.074219 18.035156 C 9.089844 17.078125 10.65625 15.597656 10.65625 15.597656 C 10.65625 15.597656 13.632812 17.78125 15.320312 18.984375 Z M 6.144531 11.75 L 7.542969 16.367188 L 7.855469 13.445312 C 7.855469 13.445312 13.261719 8.566406 16.34375 5.789062 C 16.433594 5.707031 16.445312 5.570312 16.371094 5.476562 C 16.296875 5.378906 16.160156 5.355469 16.058594 5.421875 C 12.484375 7.703125 6.144531 11.75 6.144531 11.75 Z M 6.144531 11.75 "/>
</g>
</svg>
